<svg xmlns="http://www.w3.org/2000/svg" viewBox="0 0 512 512">
  <defs>
    <linearGradient id="bg" x1="0" y1="0" x2="1" y2="1">
      <stop stop-color="#081A33"/>
      <stop offset="1" stop-color="#123B67"/>
    </linearGradient>
    <linearGradient id="bridge" x1="0" y1="0" x2="1" y2="0">
      <stop stop-color="#42D9FF"/>
      <stop offset="1" stop-color="#3C7CFF"/>
    </linearGradient>
  </defs>
  <rect width="512" height="512" rx="112" fill="url(#bg)"/>
  <path d="M131 244c54 128 196 128 250 0" fill="none" stroke="url(#bridge)" stroke-width="18" stroke-linecap="round"/>
  <path d="M256 118l72 28v61c0 56-31 91-72 111-41-20-72-55-72-111v-61z" fill="#F5FCFF"/>
  <path d="M256 137l53 21v49c0 39-20 67-53 86-33-19-53-47-53-86v-49z" fill="#123B67"/>
  <path d="M226 207l21 21 40-43" stroke="#55E1FF" stroke-width="14" stroke-linecap="round" stroke-linejoin="round"/>
</svg>
